<svg xmlns="http://www.w3.org/2000/svg" fill="none" viewBox="0 0 100 32"><rect width="100" height="32" fill="#F9F9F9" rx="16"/><path fill="#000" d="M23.876 21h-1.63l3.664-10.182h1.774L31.348 21h-1.63l-2.879-8.332h-.08L23.876 21zm.274-3.987h5.29v1.292h-5.29v-1.292zM32.7 21v-7.636h1.486v3.201h.716l2.52-3.201h1.84l-2.958 3.713L39.297 21h-1.845l-2.302-3.053h-.964V21H32.7zm7.751 0v-7.636h1.488v3.201h.716l2.52-3.201h1.84l-2.958 3.713L47.049 21h-1.846l-2.302-3.053h-.964V21H40.45zm9.976.17a3.12 3.12 0 0 1-1.313-.27 2.21 2.21 0 0 1-.93-.79c-.225-.345-.338-.767-.338-1.268 0-.43.083-.785.25-1.064a1.834 1.834 0 0 1 .67-.66c.282-.163.597-.286.945-.369a9.383 9.383 0 0 1 1.064-.19l1.113-.129c.285-.035.493-.093.622-.173.128-.08.193-.209.193-.388v-.035c0-.435-.123-.771-.368-1.01-.242-.238-.603-.358-1.084-.358-.5 0-.894.111-1.182.333-.285.22-.482.463-.592.731l-1.397-.317c.165-.464.407-.838.725-1.123.322-.289.69-.498 1.109-.627a4.328 4.328 0 0 1 1.317-.199c.306 0 .63.037.97.11.345.07.667.198.965.387.302.19.549.46.74.812.193.348.29.8.29 1.357V21h-1.452v-1.044h-.06c-.096.192-.24.381-.433.567a2.3 2.3 0 0 1-.74.462c-.302.123-.663.184-1.084.184zm.323-1.194c.41 0 .761-.081 1.053-.244.295-.162.519-.374.67-.636a1.65 1.65 0 0 0 .235-.85v-.985c-.053.054-.156.104-.309.15-.15.044-.32.082-.513.115-.192.03-.38.058-.561.084a65.653 65.653 0 0 0-.458.06 3.685 3.685 0 0 0-.79.183c-.236.086-.425.21-.567.373-.138.159-.208.371-.208.636 0 .368.136.647.408.835.272.186.618.279 1.039.279zm6.09 3.888c-.222 0-.424-.019-.606-.055a1.912 1.912 0 0 1-.408-.11l.358-1.219a2.4 2.4 0 0 0 .726.096.87.87 0 0 0 .562-.239c.165-.149.311-.392.437-.73l.183-.508-2.794-7.736h1.59l1.934 5.926h.08l1.933-5.926h1.596l-3.147 8.655a3.452 3.452 0 0 1-.557 1.008 2.163 2.163 0 0 1-.806.627c-.312.14-.673.209-1.084.209zm12.166-7.323v1.288h-4.137v-1.287h4.136zm-3.72-3.176V21H63.83v-7.636h1.457zm4.759 0V21h-1.452v-7.636h1.452zm1.041 1.282v-1.282h6.444v1.282h-2.491V21h-1.453v-6.354h-2.5z"/></svg>